<?xml version="1.0" encoding="utf-8"?>
<!-- Generator: Adobe Illustrator 19.0.0, SVG Export Plug-In . SVG Version: 6.00 Build 0)  -->
<svg version="1.1" id="Layer_1" xmlns="http://www.w3.org/2000/svg" xmlns:xlink="http://www.w3.org/1999/xlink" x="0px" y="0px"
	 viewBox="-382.1 294.6 22.6 24" style="enable-background:new -382.1 294.6 22.6 24;" xml:space="preserve">
<g>
	<path d="M-360.8,313.4c-0.6,0.2-1.2,0.4-1.8,0.7c-3.5,1.2-6.9,2.4-10.4,3.7c-0.8,0.2-1.8,0.4-2.6,0.1c-0.6-0.2-1-0.6-1.4-0.9
		c-1.6-1.3-3.2-2.6-4.8-4c0,0.3-0.1,0.5,0.1,0.7c0.1,0.1,0.1,0.2,0.2,0.2c0.9,0.7,1.8,1.5,2.7,2.2c0.8,0.7,1.7,1.5,2.6,2.1
		c0.9,0.6,2.1,0.4,3.1,0.1c1-0.4,2.1-0.7,3.2-1.1c2.2-0.8,4.6-1.6,6.8-2.4c0.4-0.1,0.7-0.3,1-0.4c0.6-0.2,1.1-0.3,1.6-0.6l0.1-0.1
		v-0.7C-360.4,313.3-360.6,313.3-360.8,313.4z"/>
	<g>
		<g>
			<path d="M-360.7,308.6c-0.6,0.2-1.2,0.4-1.8,0.7c-3.5,1.2-6.9,2.4-10.4,3.7c-0.8,0.3-1.8,0.5-2.6,0.2c-0.6-0.2-1-0.6-1.4-0.9
				c-1.6-1.4-3.2-2.7-4.8-4c0,0.3-0.1,0.5,0.1,0.7l0.2,0.2c0.9,0.7,1.8,1.5,2.7,2.2c0.8,0.7,1.7,1.5,2.6,2.1
				c0.9,0.6,2.1,0.4,3.1,0.1c1-0.4,2.1-0.7,3.2-1.1c2.2-0.8,4.6-1.6,6.8-2.4c0.4-0.1,0.7-0.3,1-0.4c0.6-0.2,1.1-0.3,1.6-0.6l0.1-0.1
				v-0.7C-360.3,308.5-360.5,308.6-360.7,308.6z"/>
			<path d="M-360.7,310.3c-0.6,0.2-1.2,0.4-1.8,0.7c-3.5,1.2-6.9,2.4-10.4,3.7c-0.8,0.2-1.8,0.4-2.6,0.1c-0.6-0.2-1-0.6-1.4-0.9
				c-1.6-1.3-3.2-2.6-4.8-4c0,0.3-0.1,0.5,0.1,0.7c0.1,0.1,0.1,0.2,0.2,0.2c0.9,0.7,1.8,1.5,2.7,2.2c0.8,0.7,1.7,1.5,2.6,2.1
				c0.9,0.6,2.1,0.4,3.1,0.1c1-0.4,2.1-0.7,3.2-1.1c2.2-0.8,4.6-1.6,6.8-2.4c0.4-0.1,0.7-0.3,1-0.4c0.6-0.2,1.1-0.3,1.6-0.6l0.1-0.1
				V310C-360.3,310.1-360.5,310.2-360.7,310.3L-360.7,310.3z"/>
			<path d="M-360.7,311.9c-0.6,0.2-1.2,0.4-1.8,0.7c-3.5,1.2-6.9,2.4-10.4,3.7c-0.8,0.2-1.8,0.4-2.6,0.1c-0.6-0.2-1-0.6-1.4-0.9
				c-1.6-1.3-3.2-2.6-4.8-4c0,0.3-0.1,0.5,0.1,0.7c0.1,0.1,0.1,0.2,0.2,0.2c0.9,0.7,1.8,1.5,2.7,2.2c0.8,0.7,1.7,1.5,2.6,2.1
				c0.9,0.6,2.1,0.4,3.1,0.1c1-0.4,2.1-0.7,3.2-1.1c2.2-0.8,4.6-1.6,6.8-2.4c0.4-0.1,0.7-0.3,1-0.4c0.6-0.2,1.1-0.3,1.6-0.6l0.1-0.1
				v-0.7C-360.3,311.7-360.5,311.8-360.7,311.9L-360.7,311.9z"/>
			<path d="M-360.4,303.5c-0.1-0.2-3.7-3.6-5.7-4.8l1.1,1.3h-3.3v4.5c0,0.7-0.7,1.4-1.4,1.4h-3.6c-0.7,0-1.4-0.7-1.4-1.4v-3.9
				c-3.3,1.1-6.7,2.3-6.8,2.4c-0.2,0.2-0.4,0.4-0.4,0.6c-0.1,0.3,0,0.5,0.1,0.7c0.1,0.1,5,4.1,5.5,4.7c0.7,0.6,1.6,0.6,2.1,0.4
				c2-0.5,10-3.6,12.1-4.2c0.5-0.2,1.3-0.4,1.5-0.9C-360.1,303.9-360.3,303.7-360.4,303.5L-360.4,303.5z"/>
			<path d="M-361.5,305.6L-361.5,305.6c-0.9,0.3-2.9,0.9-5,1.7c-3,1.1-6.2,2.2-7.3,2.5c-0.3,0.1-0.6,0.1-0.8,0.1
				c-0.7,0-1.3-0.2-1.8-0.7c-0.4-0.4-2.6-2.2-4-3.5c-0.6,0.2-0.8,0.3-0.8,0.4c-0.2,0.2-0.4,0.4-0.4,0.6c-0.1,0.3,0,0.5,0.1,0.7
				c0.1,0.1,5,4.1,5.5,4.7c0.7,0.6,1.6,0.6,2.1,0.4c2-0.5,10-3.6,12.1-4.2c0.5-0.2,1.3-0.4,1.5-0.9c0.1-0.3-0.1-0.6-0.2-0.7
				C-360.4,306.6-360.9,306.2-361.5,305.6z"/>
		</g>
		<path d="M-366,299.6c0-0.1-4.7-4.8-4.7-4.8c-0.4-0.4-0.9-0.4-1.3,0l-4.8,4.8h2.7v0.3v1.1v3.6c0,0.6,0.4,0.9,0.9,0.9h3.6
			c0.5,0,0.9-0.4,0.9-0.9v-3.3v-1.4v-0.3H-366z"/>
	</g>
</g>
</svg>
