<?xml version="1.0" encoding="utf-8"?>
<!-- Generator: Adobe Illustrator 19.0.0, SVG Export Plug-In . SVG Version: 6.00 Build 0)  -->
<svg version="1.1" id="Layer_1" xmlns="http://www.w3.org/2000/svg" xmlns:xlink="http://www.w3.org/1999/xlink" x="0px" y="0px"
	 viewBox="-383 287.3 24 23.7" style="enable-background:new -383 287.3 24 23.7;" xml:space="preserve">
<g>
	<path d="M-363.3,298.8c0.8-0.3,1.5-0.6,2.2-0.9c0.5-0.2,1-0.4,1.5-0.6c0.2-0.1,0.3-0.1,0.5,0.1c0.1,0.2,0,0.3-0.1,0.5
		c-1.9,2.5-3.8,4.9-5.7,7.4c-0.2,0.3-0.4,0.3-0.6,0c-1.9-2.5-3.8-4.9-5.7-7.4c-0.1-0.1-0.2-0.3-0.1-0.5c0.1-0.2,0.3-0.1,0.5-0.1
		c1.1,0.4,2.2,0.9,3.4,1.3c0.1,0,0.2,0.1,0.3,0.1c0,0,0.1,0,0.1,0c0-1.3,0.1-2.6-0.2-3.9c-0.4-1.5-1.2-2.7-2.7-3.3
		c-0.8-0.3-1.6-0.4-2.4-0.4c-3.1,0-6.2,0-9.3,0c-0.5,0-1,0-1.5,0c0-1.2,0-2.4,0-3.7c0.2,0,0.4,0,0.6,0c3.4,0,6.8,0,10.1,0
		c1.6,0,3.2,0.3,4.7,1.1c2.1,1.2,3.4,3.1,4,5.4c0.3,1,0.4,2.1,0.3,3.1C-363.3,297.6-363.3,298.1-363.3,298.8z"/>
	<path d="M-365.1,311c-1.9,0-3.7,0-5.6,0c-0.4,0-0.5-0.1-0.5-0.5c0-0.7,0-1.3,0-2c0-0.5,0.1-0.5,0.5-0.5c2.4,0,4.9,0,7.3,0
		c1.3,0,2.5,0,3.8,0c0.5,0,0.5,0.1,0.5,0.5c0,0.7,0,1.3,0,2c0,0.4-0.1,0.5-0.5,0.5C-361.4,311-363.3,311-365.1,311z"/>
</g>
</svg>
